<?xml version="1.0" encoding="UTF-8"?>
<svg id="Layer_2" data-name="Layer 2" xmlns="http://www.w3.org/2000/svg" viewBox="0 0 55.36 47.29">
  <defs>
    <style>
      .cls-1 {
        fill: #ccc;
        opacity: .47;
        stroke: #fff;
        stroke-miterlimit: 10;
      }

      .cls-2 {
        fill: #ff931e;
      }
    </style>
  </defs>
  <g id="desktop">
    <g>
      <path d="m51.09,16.24c-.34-5.09-2.64-9.83-6.8-12.93C40.24.29,35.21-.61,30.36.39c3.11,3,6.67,6.1,10.73,9.14,3.41,2.56,6.77,4.78,10.01,6.71Z"/>
      <path class="cls-2" d="m50.73,21.58c.36-1.79.48-3.58.36-5.34-3.24-1.93-6.6-4.15-10.01-6.71-4.05-3.04-7.61-6.14-10.73-9.14-1.72.35-3.41.94-5.03,1.76,3.59,3.65,7.85,7.5,12.86,11.26,4.31,3.23,8.54,5.93,12.53,8.17Z"/>
      <path d="m48.52,27.66c1.06-1.96,1.79-4.01,2.21-6.08-4-2.25-8.23-4.94-12.53-8.17-5.01-3.76-9.27-7.61-12.86-11.26-1.88.94-3.65,2.19-5.25,3.72,3.87,4.07,8.58,8.44,14.26,12.71,4.91,3.68,9.71,6.66,14.18,9.08Z"/>
      <path class="cls-2" d="m45.8,31.62c.33-.39.65-.79.96-1.2.67-.89,1.25-1.82,1.76-2.76-4.48-2.42-9.28-5.4-14.18-9.08-5.68-4.26-10.4-8.63-14.26-12.71-.89.85-1.72,1.78-2.48,2.81-.21.28-.41.57-.61.86,3.9,4.13,8.68,8.58,14.46,12.92,4.97,3.73,9.83,6.74,14.35,9.17Z"/>
      <path d="m40.67,36.02c1.87-1.16,3.6-2.63,5.12-4.4-4.52-2.44-9.38-5.45-14.35-9.17-5.78-4.34-10.56-8.78-14.46-12.92-1.34,1.98-2.31,4.09-2.93,6.24,3.65,3.74,8.01,7.7,13.17,11.57,4.64,3.48,9.18,6.34,13.45,8.68Z"/>
      <path class="cls-2" d="m35.18,38.42c1.9-.51,3.76-1.31,5.5-2.4-4.27-2.35-8.81-5.2-13.45-8.68-5.16-3.87-9.52-7.83-13.17-11.57-.57,1.97-.84,3.97-.83,5.94,3.2,3.12,6.89,6.34,11.11,9.51,3.7,2.78,7.35,5.16,10.84,7.2Z"/>
      <path d="m35.18,38.42c-3.49-2.04-7.14-4.42-10.84-7.2-4.22-3.17-7.9-6.39-11.11-9.51.03,4.2,1.39,8.23,4,11.38l-5.54,13.54,11.31-9.1c3.78,1.75,8.08,1.99,12.18.89Z"/>
      <path class="cls-1" d="m28.38,11.48c-.3,3.64-29.4,14.12-27.82-.8,1.21-19.35,28.12-2.85,27.82.8Z"/>
      <path class="cls-1" d="m39.32,19.64c-3.41,1.32-5.15,32.21,8.7,26.44,18.2-6.68-5.29-27.76-8.7-26.44Z"/>
    </g>
  </g>
</svg>