<?xml version="1.0" encoding="UTF-8"?>
<svg id="Layer_2" data-name="Layer 2" xmlns="http://www.w3.org/2000/svg" viewBox="0 0 240.94 94.76">
  <defs>
    <style>
      .cls-1 {
        fill: #fff;
      }

      .cls-2 {
        fill: #ccc;
        opacity: .47;
        stroke: #fff;
        stroke-miterlimit: 10;
      }

      .cls-2, .cls-3 {
        isolation: isolate;
      }

      .cls-3 {
        fill: none;
      }

      .cls-4 {
        fill: #ff931e;
      }

      .cls-5 {
        fill: #ff1d25;
      }

      .cls-6 {
        fill: #8c1fff;
      }
    </style>
  </defs>
  <g id="Layer_2-2" data-name="Layer 2">
    <g id="Layer_2-2" data-name="Layer 2-2">
      <g id="Logo">
        <g>
          <path d="m51.09,16.25c-.34-5.09-2.64-9.83-6.8-12.93S35.21-.6,30.36.4c3.11,3,6.67,6.1,10.73,9.14,3.41,2.56,6.77,4.78,10.01,6.71h0Z"/>
          <path class="cls-4" d="m50.73,21.59c.36-1.79.48-3.58.36-5.34-3.24-1.93-6.6-4.15-10.01-6.71-4.05-3.04-7.61-6.14-10.73-9.14-1.72.35-3.41.94-5.03,1.76,3.59,3.65,7.85,7.5,12.86,11.26,4.31,3.23,8.54,5.93,12.53,8.17h.02Z"/>
          <path d="m48.52,27.67c1.06-1.96,1.79-4.01,2.21-6.08-4-2.25-8.23-4.94-12.53-8.17-5.01-3.76-9.27-7.61-12.86-11.26-1.88.94-3.65,2.19-5.25,3.72,3.87,4.07,8.58,8.44,14.26,12.71,4.91,3.68,9.71,6.66,14.18,9.08h0Z"/>
          <path class="cls-4" d="m45.8,31.63c.33-.39.65-.79.96-1.2.67-.89,1.25-1.82,1.76-2.76-4.48-2.42-9.28-5.4-14.18-9.08-5.68-4.26-10.4-8.63-14.26-12.71-.89.85-1.72,1.78-2.48,2.81-.21.28-.41.57-.61.86,3.9,4.13,8.68,8.58,14.46,12.92,4.97,3.73,9.83,6.74,14.35,9.17h0Z"/>
          <path d="m40.67,36.03c1.87-1.16,3.6-2.63,5.12-4.4-4.52-2.44-9.38-5.45-14.35-9.17-5.78-4.34-10.56-8.78-14.46-12.92-1.34,1.98-2.31,4.09-2.93,6.24,3.65,3.74,8.01,7.7,13.17,11.57,4.64,3.48,9.18,6.34,13.45,8.68Z"/>
          <path class="cls-4" d="m35.18,38.43c1.9-.51,3.76-1.31,5.5-2.4-4.27-2.35-8.81-5.2-13.45-8.68-5.16-3.87-9.52-7.83-13.17-11.57-.57,1.97-.84,3.97-.83,5.94,3.2,3.12,6.89,6.34,11.11,9.51,3.7,2.78,7.35,5.16,10.84,7.2Z"/>
          <path d="m35.18,38.43c-3.49-2.04-7.14-4.42-10.84-7.2-4.22-3.17-7.9-6.39-11.11-9.51.03,4.2,1.39,8.23,4,11.38l-5.54,13.54,11.31-9.1c3.78,1.75,8.08,1.99,12.18.89Z"/>
          <path class="cls-2" d="m28.38,11.49c-.3,3.64-29.4,14.12-27.82-.8,1.21-19.35,28.12-2.85,27.82.8Z"/>
          <path class="cls-2" d="m39.32,19.65c-3.41,1.32-5.15,32.21,8.7,26.44,18.2-6.68-5.29-27.76-8.7-26.44Z"/>
        </g>
        <g class="cls-3">
          <path class="cls-1" d="m73.24,71.6c0,.24-.01.44-.04.62-.03.17-.07.31-.12.42-.06.11-.12.18-.21.23-.08.05-.17.07-.27.07h-6.8v20.97c0,.1-.03.19-.07.26-.05.08-.14.13-.26.18-.12.04-.29.08-.5.11s-.46.05-.78.05-.55-.02-.77-.05-.38-.07-.5-.11c-.12-.04-.21-.1-.26-.18-.05-.07-.07-.16-.07-.26v-20.97h-6.8c-.1,0-.19-.02-.27-.07-.08-.05-.15-.13-.2-.23-.05-.11-.09-.25-.12-.42-.03-.17-.05-.38-.05-.62s.02-.45.05-.63c.03-.18.07-.33.12-.44.05-.11.11-.19.2-.24.08-.05.17-.07.27-.07h16.82c.1,0,.19.03.27.07.08.05.15.13.21.24s.1.26.12.44c.02.18.04.39.04.63Z"/>
        </g>
        <g class="cls-3">
          <path class="cls-1" d="m89.68,85.34c0,1.37-.18,2.63-.54,3.79s-.9,2.15-1.62,2.98c-.72.83-1.61,1.49-2.69,1.95-1.08.47-2.33.7-3.75.7s-2.59-.21-3.62-.62c-1.03-.41-1.88-1.01-2.57-1.79-.69-.79-1.2-1.74-1.53-2.86-.34-1.12-.5-2.39-.5-3.81s.18-2.63.53-3.79c.36-1.15.89-2.15,1.61-2.98.72-.83,1.61-1.48,2.68-1.94,1.07-.46,2.32-.69,3.76-.69s2.59.21,3.62.62,1.88,1.01,2.57,1.79c.69.79,1.2,1.74,1.54,2.86.34,1.12.51,2.39.51,3.79Zm-3.2.21c0-.91-.08-1.77-.25-2.58-.17-.81-.45-1.52-.84-2.13-.39-.61-.92-1.09-1.58-1.45s-1.5-.53-2.49-.53c-.92,0-1.71.16-2.37.49-.66.32-1.2.78-1.63,1.37-.43.59-.75,1.29-.95,2.1-.21.81-.31,1.7-.31,2.65s.08,1.79.25,2.6c.17.81.45,1.52.85,2.12s.93,1.08,1.59,1.44c.67.35,1.5.53,2.49.53.91,0,1.69-.16,2.36-.49s1.21-.78,1.64-1.37c.43-.58.74-1.28.94-2.09.2-.81.3-1.7.3-2.67Z"/>
        </g>
        <g class="cls-3">
          <path class="cls-1" d="m103.19,84.96c0,.49-.06.82-.17,1.01-.11.19-.27.28-.49.28h-7.81c-.22,0-.39-.1-.5-.29-.11-.19-.17-.53-.17-1s.06-.8.17-.99c.11-.19.28-.28.5-.28h7.81c.1,0,.19.02.27.06.08.04.15.11.21.21.06.11.1.24.13.4.03.16.05.36.05.6Z"/>
        </g>
        <g class="cls-3">
          <path class="cls-1" d="m123.67,87.47c0,.76-.1,1.46-.29,2.1-.19.64-.46,1.22-.81,1.73-.35.51-.77.96-1.26,1.35-.49.39-1.05.71-1.66.97-.62.26-1.28.46-1.98.59-.7.13-1.51.2-2.42.2h-6.32c-.29,0-.56-.1-.81-.29-.26-.19-.38-.53-.38-1.02v-21.57c0-.49.13-.83.38-1.02.26-.19.53-.29.81-.29h5.5c1.45,0,2.63.14,3.55.41.92.27,1.69.67,2.31,1.2s1.08,1.17,1.39,1.92c.31.76.47,1.62.47,2.58,0,.57-.07,1.12-.21,1.64-.14.52-.34,1.01-.61,1.45-.27.44-.6.84-1.01,1.19-.41.35-.87.63-1.39.86.66.12,1.28.35,1.85.68.57.33,1.07.75,1.5,1.26.43.51.77,1.11,1.02,1.79.25.69.37,1.44.37,2.26Zm-4.84-10.82c0-.59-.08-1.12-.24-1.59s-.42-.88-.76-1.21-.8-.58-1.36-.76c-.56-.17-1.3-.26-2.22-.26h-3.32v7.83h3.65c.83,0,1.5-.11,2.01-.33.51-.22.93-.51,1.27-.88.34-.37.58-.8.74-1.29s.23-1,.23-1.52Zm1.46,11.01c0-.72-.11-1.36-.35-1.91-.23-.55-.57-1.01-1.01-1.38-.44-.37-.99-.66-1.66-.85-.67-.19-1.5-.29-2.51-.29h-3.84v8.52h4.66c.73,0,1.37-.09,1.92-.26.55-.17,1.03-.43,1.45-.78.42-.34.74-.77.98-1.28s.35-1.1.35-1.78Z"/>
        </g>
        <g class="cls-3">
          <path class="cls-1" d="m142.63,84.8c0,.49-.12.83-.37,1.04-.24.21-.52.31-.84.31h-11.08c0,.93.09,1.78.28,2.52.19.75.5,1.39.94,1.92.44.54,1.01.95,1.71,1.23.7.29,1.56.43,2.57.43.8,0,1.52-.07,2.14-.2.63-.13,1.17-.28,1.62-.44s.83-.31,1.13-.44.52-.2.67-.2c.09,0,.17.02.23.07.07.04.12.11.16.2.04.09.07.21.08.37.02.16.03.35.03.57,0,.16,0,.3-.02.42-.01.12-.03.22-.05.32-.02.09-.05.18-.09.25-.04.07-.1.15-.17.21s-.27.18-.61.34c-.34.16-.77.31-1.31.46-.54.15-1.16.28-1.86.4-.7.12-1.46.18-2.25.18-1.38,0-2.6-.19-3.64-.58-1.04-.39-1.92-.96-2.63-1.72-.71-.76-1.25-1.71-1.61-2.86s-.54-2.48-.54-4,.19-2.74.56-3.9c.37-1.15.91-2.13,1.62-2.93.7-.8,1.55-1.42,2.55-1.85,1-.43,2.11-.65,3.35-.65,1.32,0,2.45.21,3.37.64.93.42,1.69.99,2.29,1.71.6.72,1.04,1.56,1.32,2.52.28.97.42,2,.42,3.09v.56Zm-3.1-.92c.04-1.62-.32-2.89-1.08-3.81-.76-.92-1.88-1.38-3.38-1.38-.76,0-1.44.14-2.01.43-.58.29-1.06.67-1.45,1.14s-.69,1.03-.9,1.65c-.21.63-.33,1.29-.36,1.97h9.18Z"/>
        </g>
        <g class="cls-3">
          <path class="cls-1" d="m161.81,84.8c0,.49-.12.83-.37,1.04-.24.21-.52.31-.84.31h-11.08c0,.93.09,1.78.28,2.52.19.75.5,1.39.94,1.92.44.54,1.01.95,1.71,1.23.7.29,1.56.43,2.57.43.8,0,1.52-.07,2.14-.2.63-.13,1.17-.28,1.62-.44s.83-.31,1.13-.44.52-.2.67-.2c.09,0,.17.02.23.07.07.04.12.11.16.2.04.09.07.21.08.37.02.16.03.35.03.57,0,.16,0,.3-.02.42-.01.12-.03.22-.05.32-.02.09-.05.18-.09.25-.04.07-.1.15-.17.21s-.27.18-.61.34c-.34.16-.77.31-1.31.46-.54.15-1.16.28-1.86.4-.7.12-1.46.18-2.25.18-1.38,0-2.6-.19-3.64-.58-1.04-.39-1.92-.96-2.63-1.72-.71-.76-1.25-1.71-1.61-2.86s-.54-2.48-.54-4,.19-2.74.56-3.9c.37-1.15.91-2.13,1.62-2.93.7-.8,1.55-1.42,2.55-1.85,1-.43,2.11-.65,3.35-.65,1.32,0,2.45.21,3.37.64.93.42,1.69.99,2.29,1.71.6.72,1.04,1.56,1.32,2.52.28.97.42,2,.42,3.09v.56Zm-3.1-.92c.04-1.62-.32-2.89-1.08-3.81-.76-.92-1.88-1.38-3.38-1.38-.76,0-1.44.14-2.01.43-.58.29-1.06.67-1.45,1.14s-.69,1.03-.9,1.65c-.21.63-.33,1.29-.36,1.97h9.18Z"/>
        </g>
        <g class="cls-3">
          <path class="cls-1" d="m175.28,84.96c0,.49-.06.82-.17,1.01-.11.19-.27.28-.49.28h-7.81c-.22,0-.39-.1-.5-.29-.11-.19-.17-.53-.17-1s.06-.8.17-.99c.11-.19.28-.28.5-.28h7.81c.1,0,.19.02.27.06.08.04.15.11.21.21.06.11.1.24.13.4.03.16.05.36.05.6Z"/>
        </g>
        <g class="cls-3">
          <path class="cls-1" d="m198.42,81.95c0,2.09-.27,3.92-.8,5.49-.54,1.56-1.32,2.86-2.35,3.89-1.03,1.03-2.29,1.8-3.79,2.31-1.5.51-3.28.77-5.35.77h-5.12c-.29,0-.56-.1-.81-.29-.26-.19-.38-.53-.38-1.02v-21.57c0-.49.13-.83.38-1.02.26-.19.53-.29.81-.29h5.48c2.09,0,3.86.27,5.31.81,1.45.54,2.66,1.32,3.64,2.34.98,1.02,1.72,2.25,2.22,3.69.5,1.45.76,3.08.76,4.9Zm-3.38.13c0-1.31-.16-2.53-.49-3.65-.32-1.13-.83-2.1-1.52-2.93-.69-.82-1.57-1.46-2.63-1.92-1.06-.46-2.42-.69-4.09-.69h-3.27v18.82h3.31c1.54,0,2.85-.19,3.91-.58,1.06-.39,1.94-.98,2.65-1.78.71-.8,1.24-1.8,1.6-3,.35-1.2.53-2.63.53-4.27Z"/>
        </g>
        <g class="cls-3">
          <path class="cls-1" d="m220.76,85.34c0,1.37-.18,2.63-.54,3.79s-.9,2.15-1.62,2.98c-.72.83-1.61,1.49-2.69,1.95-1.08.47-2.33.7-3.75.7s-2.59-.21-3.62-.62c-1.03-.41-1.88-1.01-2.57-1.79-.69-.79-1.2-1.74-1.53-2.86-.34-1.12-.5-2.39-.5-3.81s.18-2.63.53-3.79c.36-1.15.89-2.15,1.61-2.98.72-.83,1.61-1.48,2.68-1.94,1.07-.46,2.32-.69,3.76-.69s2.59.21,3.62.62,1.88,1.01,2.57,1.79c.69.79,1.2,1.74,1.54,2.86.34,1.12.51,2.39.51,3.79Zm-3.2.21c0-.91-.08-1.77-.25-2.58-.17-.81-.45-1.52-.84-2.13-.39-.61-.92-1.09-1.58-1.45s-1.5-.53-2.49-.53c-.92,0-1.71.16-2.37.49-.66.32-1.2.78-1.63,1.37-.43.59-.75,1.29-.95,2.1-.21.81-.31,1.7-.31,2.65s.08,1.79.25,2.6c.17.81.45,1.52.85,2.12s.93,1.08,1.59,1.44c.67.35,1.5.53,2.49.53.91,0,1.69-.16,2.36-.49s1.21-.78,1.64-1.37c.43-.58.74-1.28.94-2.09.2-.81.3-1.7.3-2.67Z"/>
          <path class="cls-1" d="m240.94,85.34c0,1.37-.18,2.63-.54,3.79s-.9,2.15-1.62,2.98c-.72.83-1.61,1.49-2.69,1.95-1.08.47-2.33.7-3.75.7s-2.59-.21-3.62-.62c-1.03-.41-1.88-1.01-2.57-1.79-.69-.79-1.2-1.74-1.53-2.86-.34-1.12-.5-2.39-.5-3.81s.18-2.63.53-3.79c.36-1.15.89-2.15,1.61-2.98.72-.83,1.61-1.48,2.68-1.94,1.07-.46,2.32-.69,3.76-.69s2.59.21,3.62.62,1.88,1.01,2.57,1.79c.69.79,1.2,1.74,1.54,2.86.34,1.12.51,2.39.51,3.79Zm-3.2.21c0-.91-.08-1.77-.25-2.58-.17-.81-.45-1.52-.84-2.13-.39-.61-.92-1.09-1.58-1.45s-1.5-.53-2.49-.53c-.92,0-1.71.16-2.37.49-.66.32-1.2.78-1.63,1.37-.43.59-.75,1.29-.95,2.1-.21.81-.31,1.7-.31,2.65s.08,1.79.25,2.6c.17.81.45,1.52.85,2.12s.93,1.08,1.59,1.44c.67.35,1.5.53,2.49.53.91,0,1.69-.16,2.36-.49s1.21-.78,1.64-1.37c.43-.58.74-1.28.94-2.09.2-.81.3-1.7.3-2.67Z"/>
        </g>
        <circle class="cls-4" cx="37.2" cy="54.3" r="2.5"/>
        <circle class="cls-5" cx="37.2" cy="61.3" r="2.5"/>
        <circle class="cls-6" cx="37.2" cy="68.3" r="2.5"/>
      </g>
    </g>
  </g>
</svg>